<mxfile host="app.diagrams.net" modified="2024-03-03T14:26:09.624Z" agent="Mozilla/5.0 (Windows NT 10.0; Win64; x64) AppleWebKit/537.36 (KHTML, like Gecko) Chrome/122.0.0.0 Safari/537.36" version="24.0.1" etag="y0NrPulgAqcyRGL0H0a4" type="github">
  <diagram name="Page-1" id="Eb45YkmAcSw6L9issB3j">
    <mxGraphModel>
      <root>
        <mxCell id="0" />
        <mxCell id="1" parent="0" />
      </root>
    </mxGraphModel>
  </diagram>
</mxfile>
